<?xml version="1.0" encoding="UTF-8"?>
<svg xmlns="http://www.w3.org/2000/svg" xmlns:xlink="http://www.w3.org/1999/xlink" width="375pt" height="374.999991pt" viewBox="0 0 375 374.999991" version="1.2">
<defs>
<clipPath id="clip1">
  <path d="M 62 131.84375 L 313 131.84375 L 313 252.59375 L 62 252.59375 Z M 62 131.84375 "/>
</clipPath>
<clipPath id="clip2">
  <path d="M 199 157 L 312 157 L 312 252.59375 L 199 252.59375 Z M 199 157 "/>
</clipPath>
<clipPath id="clip3">
  <path d="M 63 131.84375 L 176 131.84375 L 176 227 L 63 227 Z M 63 131.84375 "/>
</clipPath>
</defs>
<g id="surface1">
<g clip-path="url(#clip1)" clip-rule="nonzero">
<path style=" stroke:none;fill-rule:nonzero;fill:rgb(22.349548%,30.198669%,64.309692%);fill-opacity:1;" d="M 221.273438 164.039062 C 232.4375 150.039062 251.421875 145.304688 269.980469 149.058594 C 286.148438 152.324219 301.988281 162.046875 312.039062 177.691406 C 306.503906 155.296875 288.417969 137.8125 265.738281 133.101562 C 261.765625 132.261719 257.640625 131.828125 253.4375 131.828125 C 235.371094 131.828125 218.398438 139.847656 206.78125 153.910156 L 154.488281 219.40625 C 154.214844 219.738281 153.941406 220.050781 153.648438 220.363281 C 142.484375 234.367188 123.496094 239.097656 104.941406 235.34375 C 88.769531 232.078125 72.929688 222.359375 62.882812 206.710938 C 68.414062 229.105469 86.5 246.589844 109.183594 251.300781 C 113.152344 252.144531 117.277344 252.574219 121.480469 252.574219 C 139.550781 252.574219 156.523438 244.554688 168.136719 230.492188 L 220.429688 165 C 220.703125 164.664062 220.980469 164.351562 221.273438 164.039062 "/>
</g>
<g clip-path="url(#clip2)" clip-rule="nonzero">
<path style=" stroke:none;fill-rule:nonzero;fill:rgb(22.349548%,30.198669%,64.309692%);fill-opacity:1;" d="M 279.03125 157.976562 C 290.414062 166.503906 297.414062 180.546875 296.027344 196.113281 C 294.363281 214.671875 280.519531 230.300781 262.277344 234.074219 C 261.707031 234.191406 261.179688 234.289062 260.671875 234.367188 C 260.496094 234.40625 260.28125 234.425781 260.066406 234.464844 C 259.773438 234.523438 259.480469 234.5625 259.207031 234.582031 C 250.191406 235.851562 222.835938 237.75 199.332031 219.660156 C 201.503906 223.0625 205.589844 229.222656 208.425781 232.410156 C 219.902344 245.257812 236.171875 252.574219 253.4375 252.574219 C 275.746094 252.574219 295.28125 240.390625 305.722656 222.339844 C 308.070312 217.917969 310.160156 211.074219 310.632812 207.964844 C 310.652344 207.828125 310.671875 207.710938 310.691406 207.613281 C 314.074219 182.929688 296.511719 165 279.03125 157.976562 "/>
</g>
<g clip-path="url(#clip3)" clip-rule="nonzero">
<path style=" stroke:none;fill-rule:nonzero;fill:rgb(22.349548%,30.198669%,64.309692%);fill-opacity:1;" d="M 95.886719 226.425781 C 84.507812 217.898438 77.507812 203.859375 78.894531 188.289062 C 80.558594 169.730469 94.402344 154.105469 112.644531 150.332031 C 113.210938 150.214844 113.738281 150.113281 114.246094 150.039062 C 114.425781 150 114.640625 149.976562 114.855469 149.9375 C 115.148438 149.878906 115.441406 149.839844 115.714844 149.820312 C 124.726562 148.550781 152.082031 146.652344 175.585938 164.746094 C 173.417969 161.339844 169.332031 155.179688 166.496094 151.992188 C 155.015625 139.144531 138.75 131.828125 121.480469 131.828125 C 99.171875 131.828125 79.636719 144.011719 69.199219 162.066406 C 66.851562 166.484375 64.757812 173.328125 64.289062 176.441406 C 64.269531 176.574219 64.25 176.695312 64.230469 176.789062 C 60.847656 201.472656 78.40625 219.40625 95.886719 226.425781 "/>
</g>
</g>
</svg>
